<svg width="35" height="35" viewBox="0 0 35 35" fill="none" xmlns="http://www.w3.org/2000/svg">
<circle cx="17.5" cy="17.5" r="17" stroke="#202020"/>
<path d="M16.5419 14.9187C17.5104 12.9275 18.9191 11.9752 20.3279 11.8886C24.2019 11.4558 25.8748 15.9575 24.5541 19.1607C24.378 19.7667 24.0258 20.2861 23.5856 20.5458C23.0573 20.9787 22.3529 20.9787 21.8247 20.3727C21.0323 19.507 19.7116 18.2084 18.567 17.7755C19.8876 19.2472 20.2398 20.719 19.9757 22.0175C19.0072 25.6535 14.1646 25.7401 11.5233 23.4893C10.5547 22.7967 9.76233 21.0652 11.2591 20.5458C12.4037 20.0264 14.4288 19.0741 15.1331 18.0352C15.1331 18.0352 15.1331 18.0352 15.0451 17.9487C11.6993 18.901 8.52968 17.1695 9.05795 13.7066C9.32209 11.8886 10.5547 10.1572 13.02 9.20492C14.0766 8.77206 16.0136 8.9452 15.7495 10.5035C15.6614 11.8021 15.4853 13.7066 16.1017 15.0052C16.2778 15.0052 16.3658 14.9187 16.5419 14.9187ZM17.2463 16.8232C17.2463 16.3904 16.8941 16.1307 16.5419 16.1307C16.1017 16.1307 15.8375 16.3904 15.8375 16.8232C15.8375 17.1695 16.1017 17.5158 16.5419 17.5158C16.8941 17.5158 17.2463 17.1695 17.2463 16.8232Z" fill="white"/>
</svg>
