<svg width="35" height="35" viewBox="0 0 35 35" fill="none" xmlns="http://www.w3.org/2000/svg">
<circle cx="17.5" cy="17.5" r="17" stroke="#202020"/>
<path d="M21.1305 16.4667V13.2667C21.1305 12.1351 20.6811 11.0498 19.8811 10.2497C19.0812 9.44952 17.9963 9 16.865 9C15.7337 9 14.6488 9.44952 13.8489 10.2497C13.0489 11.0498 12.5995 12.1351 12.5995 13.2667V16.4667C12.1753 16.4667 11.7685 16.6352 11.4685 16.9353C11.1685 17.2354 11 17.6423 11 18.0667V23.4C11 23.8243 11.1685 24.2313 11.4685 24.5314C11.7685 24.8314 12.1753 25 12.5995 25H21.1305C21.5547 25 21.9615 24.8314 22.2615 24.5314C22.5615 24.2313 22.73 23.8243 22.73 23.4V18.0667C22.73 17.6423 22.5615 17.2354 22.2615 16.9353C21.9615 16.6352 21.5547 16.4667 21.1305 16.4667ZM13.6659 13.2667C13.6659 12.418 14.003 11.604 14.6029 11.0039C15.2028 10.4038 16.0165 10.0667 16.865 10.0667C17.7135 10.0667 18.5272 10.4038 19.1271 11.0039C19.727 11.604 20.0641 12.418 20.0641 13.2667V16.4667H13.6659V13.2667ZM21.6636 23.4C21.6636 23.5414 21.6075 23.6771 21.5075 23.7771C21.4075 23.8771 21.2719 23.9333 21.1305 23.9333H12.5995C12.4581 23.9333 12.3225 23.8771 12.2225 23.7771C12.1225 23.6771 12.0664 23.5414 12.0664 23.4V18.0667C12.0664 17.9252 12.1225 17.7896 12.2225 17.6895C12.3225 17.5895 12.4581 17.5333 12.5995 17.5333H21.1305C21.2719 17.5333 21.4075 17.5895 21.5075 17.6895C21.6075 17.7896 21.6636 17.9252 21.6636 18.0667V23.4Z" fill="white"/>
<path d="M16.865 19.1333C16.5486 19.1333 16.2394 19.2272 15.9763 19.403C15.7133 19.5788 15.5083 19.8287 15.3872 20.121C15.2662 20.4134 15.2345 20.7351 15.2962 21.0455C15.3579 21.3558 15.5103 21.6409 15.734 21.8647C15.9577 22.0885 16.2427 22.2409 16.5529 22.3026C16.8632 22.3643 17.1848 22.3326 17.4771 22.2115C17.7694 22.0904 18.0192 21.8854 18.195 21.6222C18.3707 21.3591 18.4645 21.0498 18.4645 20.7333C18.4645 20.309 18.296 19.902 17.9961 19.602C17.6961 19.3019 17.2892 19.1333 16.865 19.1333ZM16.865 21.2667C16.7596 21.2667 16.6565 21.2354 16.5688 21.1768C16.4811 21.1182 16.4128 21.0349 16.3724 20.9374C16.3321 20.84 16.3215 20.7327 16.3421 20.6293C16.3626 20.5258 16.4134 20.4308 16.488 20.3562C16.5626 20.2816 16.6576 20.2308 16.761 20.2102C16.8644 20.1897 16.9716 20.2002 17.069 20.2406C17.1665 20.281 17.2497 20.3493 17.3083 20.437C17.3669 20.5247 17.3982 20.6278 17.3982 20.7333C17.3982 20.8748 17.342 21.0104 17.242 21.1105C17.142 21.2105 17.0064 21.2667 16.865 21.2667Z" fill="white"/>
</svg>
