<svg width="226" height="97" viewBox="0 0 226 97" fill="none" xmlns="http://www.w3.org/2000/svg">
<path d="M121.311 36C123.425 36 125.139 34.0636 125.139 31.6748C125.139 29.2861 123.425 27.3497 121.311 27.3497C119.197 27.3497 117.483 29.2861 117.483 31.6748C117.483 34.0636 119.197 36 121.311 36Z" fill="#C50005"/>
<path d="M84.4907 36C86.6049 36 88.3187 34.0636 88.3187 31.6748C88.3187 29.2861 86.6049 27.3497 84.4907 27.3497C82.3766 27.3497 80.6627 29.2861 80.6627 31.6748C80.6627 34.0636 82.3766 36 84.4907 36Z" fill="#C50005"/>
<path d="M132.221 25.826C131.999 24.3723 131.883 22.51 131.887 22.178C131.887 22.178 130.387 22.1889 129.494 21.8635C128.601 21.5391 121.9 18.8085 118.919 18.2155C115.937 17.6224 108.19 16.0299 101.496 17.8375C97.3851 18.9483 90.8089 22.8694 90.8089 22.8694C90.8089 22.8694 82.4656 23.5269 78.7304 25.5737C74.9952 27.6205 75.5423 27.65 75.4466 27.9001C75.3499 28.1502 75.3606 28.5205 75.2794 28.7805C75.1982 29.0404 75 29.5177 75 29.9764C75 30.4352 75.4447 30.9551 75.4456 31.1713C75.4466 31.3876 75.3345 31.3035 75.3345 31.4859C75.3345 31.6683 75.6786 31.866 75.668 32.2406C75.6535 32.7725 75.1112 33.0477 75.1112 33.2465C75.1112 33.4464 75.3963 33.7315 75.6119 33.8123C75.8284 33.8931 77.1731 34.1727 79.2301 34.2525C79.2301 34.2525 79.0803 34.4927 79.6758 34.5037C79.7144 34.5048 79.7908 34.5048 79.8971 34.5058C79.7231 33.9466 79.6197 33.2487 79.6197 32.4918C79.6197 32.1532 79.641 31.8256 79.6787 31.5175C79.7521 28.5686 81.8894 26.2028 84.5178 26.2028C86.8939 26.2028 88.8688 28.1371 89.2806 30.6875C89.4381 31.4542 89.528 32.3367 89.528 33.2771C89.528 33.6998 89.5097 34.1094 89.4758 34.5037C89.5097 34.5037 89.528 34.5037 89.528 34.5037L116.468 34.6293H116.545C116.387 33.9062 116.301 33.1351 116.301 32.3334C116.301 31.9096 116.325 31.558 116.37 31.2642C116.556 28.3643 118.696 26.0761 121.31 26.0761C121.362 26.0761 121.414 26.0783 121.466 26.0805C121.506 26.0794 121.548 26.0761 121.589 26.0761C124.324 26.0761 126.543 29.0754 126.543 32.7736C126.543 33.4398 126.47 34.0821 126.336 34.6893L126.654 34.6915C126.654 34.6915 131.876 33.1788 132.22 32.8053C132.565 32.4328 133 30.4821 133 29.1595C133 27.8357 132.539 27.9056 132.221 25.826Z" fill="#C50005"/>
<path d="M10.02 80.43C10.02 80.0367 10.07 79.6533 10.17 79.28C10.2767 78.9067 10.4367 78.5733 10.65 78.28C10.87 77.98 11.15 77.74 11.49 77.56C11.83 77.38 12.2367 77.29 12.71 77.29C13.1833 77.29 13.5867 77.38 13.92 77.56C14.26 77.74 14.5367 77.98 14.75 78.28C14.97 78.5733 15.13 78.9067 15.23 79.28C15.3367 79.6533 15.39 80.0367 15.39 80.43C15.39 80.8167 15.3367 81.2 15.23 81.58C15.13 81.9533 14.97 82.29 14.75 82.59C14.5367 82.8833 14.26 83.12 13.92 83.3C13.5867 83.48 13.1833 83.57 12.71 83.57C12.2367 83.57 11.83 83.48 11.49 83.3C11.15 83.12 10.87 82.8833 10.65 82.59C10.4367 82.29 10.2767 81.9533 10.17 81.58C10.07 81.2 10.02 80.8167 10.02 80.43ZM9.34 80.43C9.34 80.9233 9.41 81.3933 9.55 81.84C9.69 82.2867 9.9 82.68 10.18 83.02C10.46 83.36 10.81 83.6333 11.23 83.84C11.6567 84.04 12.15 84.14 12.71 84.14C13.27 84.14 13.76 84.04 14.18 83.84C14.6 83.6333 14.95 83.36 15.23 83.02C15.51 82.68 15.72 82.2867 15.86 81.84C16 81.3933 16.07 80.9233 16.07 80.43C16.07 79.9367 16 79.4667 15.86 79.02C15.72 78.5733 15.51 78.18 15.23 77.84C14.95 77.4933 14.6 77.22 14.18 77.02C13.76 76.8133 13.27 76.71 12.71 76.71C12.15 76.71 11.6567 76.8133 11.23 77.02C10.81 77.22 10.46 77.4933 10.18 77.84C9.9 78.18 9.69 78.5733 9.55 79.02C9.41 79.4667 9.34 79.9367 9.34 80.43ZM17.0121 78.84V85.9H17.6421V83.02H17.6621C17.7288 83.2067 17.8221 83.37 17.9421 83.51C18.0688 83.65 18.2121 83.7667 18.3721 83.86C18.5321 83.9533 18.7054 84.0233 18.8921 84.07C19.0788 84.1167 19.2654 84.14 19.4521 84.14C19.8454 84.14 20.1854 84.07 20.4721 83.93C20.7654 83.7833 21.0088 83.5867 21.2021 83.34C21.3954 83.0867 21.5388 82.7967 21.6321 82.47C21.7254 82.1367 21.7721 81.7867 21.7721 81.42C21.7721 81.0533 21.7254 80.7067 21.6321 80.38C21.5388 80.0467 21.3954 79.7567 21.2021 79.51C21.0088 79.2567 20.7654 79.0567 20.4721 78.91C20.1854 78.7633 19.8454 78.69 19.4521 78.69C19.0321 78.69 18.6554 78.79 18.3221 78.99C17.9954 79.1833 17.7588 79.46 17.6121 79.82H17.5921V78.84H17.0121ZM21.1421 81.42C21.1421 81.6867 21.1088 81.9533 21.0421 82.22C20.9821 82.48 20.8821 82.7133 20.7421 82.92C20.6088 83.1267 20.4354 83.2967 20.2221 83.43C20.0088 83.5567 19.7521 83.62 19.4521 83.62C19.1188 83.62 18.8354 83.5567 18.6021 83.43C18.3754 83.2967 18.1888 83.1267 18.0421 82.92C17.9021 82.7133 17.7988 82.48 17.7321 82.22C17.6721 81.9533 17.6421 81.6867 17.6421 81.42C17.6421 81.1267 17.6688 80.8467 17.7221 80.58C17.7821 80.3133 17.8821 80.08 18.0221 79.88C18.1621 79.68 18.3488 79.52 18.5821 79.4C18.8154 79.28 19.1054 79.22 19.4521 79.22C19.7521 79.22 20.0088 79.2867 20.2221 79.42C20.4354 79.5467 20.6088 79.7133 20.7421 79.92C20.8821 80.1267 20.9821 80.3633 21.0421 80.63C21.1088 80.89 21.1421 81.1533 21.1421 81.42ZM26.4643 81.06H23.1243C23.151 80.8267 23.2043 80.6 23.2843 80.38C23.371 80.1533 23.4843 79.9567 23.6243 79.79C23.7643 79.6167 23.9343 79.48 24.1343 79.38C24.3343 79.2733 24.5643 79.22 24.8243 79.22C25.0776 79.22 25.3043 79.2733 25.5043 79.38C25.7043 79.48 25.8743 79.6167 26.0143 79.79C26.1543 79.9567 26.261 80.15 26.3343 80.37C26.4143 80.59 26.4576 80.82 26.4643 81.06ZM23.1243 81.59H27.0943C27.1076 81.23 27.0743 80.8767 26.9943 80.53C26.9143 80.1767 26.781 79.8667 26.5943 79.6C26.4143 79.3267 26.1776 79.1067 25.8843 78.94C25.591 78.7733 25.2376 78.69 24.8243 78.69C24.4176 78.69 24.0643 78.77 23.7643 78.93C23.471 79.0833 23.231 79.29 23.0443 79.55C22.8576 79.8033 22.7176 80.0933 22.6243 80.42C22.5376 80.7467 22.4943 81.08 22.4943 81.42C22.4943 81.7867 22.5376 82.1367 22.6243 82.47C22.7176 82.7967 22.8576 83.0867 23.0443 83.34C23.231 83.5867 23.471 83.7833 23.7643 83.93C24.0643 84.07 24.4176 84.14 24.8243 84.14C25.4776 84.14 25.981 83.98 26.3343 83.66C26.6943 83.34 26.941 82.8867 27.0743 82.3H26.4443C26.3443 82.7 26.1643 83.02 25.9043 83.26C25.6443 83.5 25.2843 83.62 24.8243 83.62C24.5243 83.62 24.2676 83.5567 24.0543 83.43C23.841 83.3033 23.6643 83.1433 23.5243 82.95C23.3843 82.7567 23.281 82.54 23.2143 82.3C23.1543 82.0533 23.1243 81.8167 23.1243 81.59ZM27.9298 78.84V84H28.5598V80.99C28.5665 80.7367 28.6065 80.5033 28.6798 80.29C28.7598 80.07 28.8665 79.8833 28.9998 79.73C29.1398 79.57 29.3065 79.4467 29.4998 79.36C29.6998 79.2667 29.9265 79.22 30.1798 79.22C30.4332 79.22 30.6432 79.26 30.8098 79.34C30.9832 79.42 31.1198 79.53 31.2198 79.67C31.3198 79.81 31.3898 79.9767 31.4298 80.17C31.4698 80.3567 31.4898 80.56 31.4898 80.78V84H32.1198V80.68C32.1198 80.3733 32.0898 80.0967 32.0298 79.85C31.9698 79.6033 31.8665 79.3967 31.7198 79.23C31.5732 79.0567 31.3765 78.9233 31.1298 78.83C30.8898 78.7367 30.5898 78.69 30.2298 78.69C29.8632 78.69 29.5265 78.7867 29.2198 78.98C28.9132 79.1667 28.6998 79.4167 28.5798 79.73H28.5598V78.84H27.9298ZM39.1841 80.35H39.8141C39.8008 80.07 39.7441 79.8267 39.6441 79.62C39.5441 79.4133 39.4075 79.24 39.2341 79.1C39.0675 78.96 38.8708 78.8567 38.6441 78.79C38.4241 78.7233 38.1841 78.69 37.9241 78.69C37.6975 78.69 37.4675 78.7167 37.2341 78.77C37.0075 78.8233 36.8008 78.9067 36.6141 79.02C36.4275 79.1333 36.2741 79.2833 36.1541 79.47C36.0408 79.6567 35.9841 79.88 35.9841 80.14C35.9841 80.36 36.0208 80.5467 36.0941 80.7C36.1675 80.8467 36.2675 80.9733 36.3941 81.08C36.5275 81.18 36.6808 81.2667 36.8541 81.34C37.0275 81.4067 37.2175 81.4667 37.4241 81.52L38.2341 81.7C38.3741 81.7333 38.5108 81.7733 38.6441 81.82C38.7841 81.8667 38.9075 81.9267 39.0141 82C39.1208 82.0667 39.2041 82.1533 39.2641 82.26C39.3308 82.36 39.3641 82.4867 39.3641 82.64C39.3641 82.82 39.3175 82.9733 39.2241 83.1C39.1375 83.22 39.0241 83.32 38.8841 83.4C38.7441 83.48 38.5908 83.5367 38.4241 83.57C38.2641 83.6033 38.1075 83.62 37.9541 83.62C37.5341 83.62 37.1808 83.5133 36.8941 83.3C36.6141 83.08 36.4608 82.7567 36.4341 82.33H35.8041C35.8575 82.9633 36.0708 83.4233 36.4441 83.71C36.8241 83.9967 37.3175 84.14 37.9241 84.14C38.1641 84.14 38.4075 84.1133 38.6541 84.06C38.9008 84.0067 39.1208 83.92 39.3141 83.8C39.5141 83.6733 39.6775 83.5133 39.8041 83.32C39.9308 83.12 39.9941 82.88 39.9941 82.6C39.9941 82.3733 39.9508 82.1767 39.8641 82.01C39.7775 81.8433 39.6641 81.7033 39.5241 81.59C39.3908 81.4767 39.2341 81.3867 39.0541 81.32C38.8808 81.2467 38.7041 81.1967 38.5241 81.17L37.6841 80.98C37.5775 80.9533 37.4608 80.92 37.3341 80.88C37.2075 80.8333 37.0908 80.7767 36.9841 80.71C36.8775 80.6433 36.7875 80.5633 36.7141 80.47C36.6475 80.37 36.6141 80.25 36.6141 80.11C36.6141 79.9433 36.6508 79.8033 36.7241 79.69C36.7975 79.5767 36.8941 79.4867 37.0141 79.42C37.1341 79.3467 37.2641 79.2967 37.4041 79.27C37.5508 79.2367 37.6941 79.22 37.8341 79.22C38.0141 79.22 38.1841 79.2433 38.3441 79.29C38.5041 79.33 38.6441 79.3967 38.7641 79.49C38.8908 79.5833 38.9908 79.7033 39.0641 79.85C39.1375 79.99 39.1775 80.1567 39.1841 80.35ZM43.0886 79.22C43.3886 79.22 43.6519 79.2833 43.8786 79.41C44.1053 79.5367 44.2919 79.7033 44.4386 79.91C44.5919 80.1167 44.7053 80.3533 44.7786 80.62C44.8586 80.88 44.8986 81.1467 44.8986 81.42C44.8986 81.6933 44.8586 81.9633 44.7786 82.23C44.7053 82.49 44.5919 82.7233 44.4386 82.93C44.2919 83.1367 44.1053 83.3033 43.8786 83.43C43.6519 83.5567 43.3886 83.62 43.0886 83.62C42.7886 83.62 42.5253 83.5567 42.2986 83.43C42.0719 83.3033 41.8819 83.1367 41.7286 82.93C41.5819 82.7233 41.4686 82.49 41.3886 82.23C41.3153 81.9633 41.2786 81.6933 41.2786 81.42C41.2786 81.1467 41.3153 80.88 41.3886 80.62C41.4686 80.3533 41.5819 80.1167 41.7286 79.91C41.8819 79.7033 42.0719 79.5367 42.2986 79.41C42.5253 79.2833 42.7886 79.22 43.0886 79.22ZM43.0886 78.69C42.6953 78.69 42.3453 78.7633 42.0386 78.91C41.7386 79.0567 41.4853 79.2533 41.2786 79.5C41.0719 79.7467 40.9153 80.0367 40.8086 80.37C40.7019 80.6967 40.6486 81.0467 40.6486 81.42C40.6486 81.7933 40.7019 82.1467 40.8086 82.48C40.9153 82.8067 41.0719 83.0933 41.2786 83.34C41.4853 83.5867 41.7386 83.7833 42.0386 83.93C42.3453 84.07 42.6953 84.14 43.0886 84.14C43.4819 84.14 43.8286 84.07 44.1286 83.93C44.4353 83.7833 44.6919 83.5867 44.8986 83.34C45.1053 83.0933 45.2619 82.8067 45.3686 82.48C45.4753 82.1467 45.5286 81.7933 45.5286 81.42C45.5286 81.0467 45.4753 80.6967 45.3686 80.37C45.2619 80.0367 45.1053 79.7467 44.8986 79.5C44.6919 79.2533 44.4353 79.0567 44.1286 78.91C43.8286 78.7633 43.4819 78.69 43.0886 78.69ZM50.6452 84V78.84H50.0152V81.55C50.0152 81.81 49.9852 82.0667 49.9252 82.32C49.8652 82.5667 49.7719 82.7867 49.6452 82.98C49.5186 83.1733 49.3586 83.33 49.1652 83.45C48.9719 83.5633 48.7386 83.62 48.4652 83.62C47.9652 83.62 47.6119 83.5 47.4052 83.26C47.2052 83.02 47.0986 82.6667 47.0852 82.2V78.84H46.4552V82.19C46.4552 82.4967 46.4886 82.77 46.5552 83.01C46.6219 83.25 46.7252 83.4533 46.8652 83.62C47.0119 83.7867 47.1986 83.9133 47.4252 84C47.6586 84.0933 47.9386 84.14 48.2652 84.14C48.6519 84.14 49.0019 84.05 49.3152 83.87C49.6352 83.6833 49.8786 83.4167 50.0452 83.07H50.0652V84H50.6452ZM51.8363 78.84V84H52.4663V81.25C52.4663 80.9767 52.513 80.7267 52.6063 80.5C52.6997 80.2667 52.8297 80.0667 52.9963 79.9C53.1697 79.7333 53.373 79.6067 53.6063 79.52C53.8397 79.4267 54.0997 79.3867 54.3863 79.4V78.77C53.9197 78.75 53.5163 78.8533 53.1763 79.08C52.843 79.3067 52.5963 79.63 52.4363 80.05H52.4163V78.84H51.8363ZM58.4548 80.46H59.0848C59.0115 79.8667 58.7815 79.4233 58.3948 79.13C58.0148 78.8367 57.5482 78.69 56.9948 78.69C56.6015 78.69 56.2515 78.7633 55.9448 78.91C55.6448 79.0567 55.3915 79.2533 55.1848 79.5C54.9782 79.7467 54.8215 80.0367 54.7148 80.37C54.6082 80.6967 54.5548 81.0467 54.5548 81.42C54.5548 81.7933 54.6082 82.1467 54.7148 82.48C54.8215 82.8067 54.9782 83.0933 55.1848 83.34C55.3915 83.5867 55.6448 83.7833 55.9448 83.93C56.2515 84.07 56.6015 84.14 56.9948 84.14C57.5815 84.14 58.0615 83.9667 58.4348 83.62C58.8082 83.2667 59.0382 82.7767 59.1248 82.15H58.4948C58.4748 82.3633 58.4215 82.56 58.3348 82.74C58.2482 82.92 58.1382 83.0767 58.0048 83.21C57.8715 83.3367 57.7182 83.4367 57.5448 83.51C57.3715 83.5833 57.1882 83.62 56.9948 83.62C56.6948 83.62 56.4315 83.5567 56.2048 83.43C55.9782 83.3033 55.7882 83.1367 55.6348 82.93C55.4882 82.7233 55.3748 82.49 55.2948 82.23C55.2215 81.9633 55.1848 81.6933 55.1848 81.42C55.1848 81.1467 55.2215 80.88 55.2948 80.62C55.3748 80.3533 55.4882 80.1167 55.6348 79.91C55.7882 79.7033 55.9782 79.5367 56.2048 79.41C56.4315 79.2833 56.6948 79.22 56.9948 79.22C57.4148 79.22 57.7415 79.33 57.9748 79.55C58.2082 79.77 58.3682 80.0733 58.4548 80.46ZM63.7104 81.06H60.3704C60.3971 80.8267 60.4504 80.6 60.5304 80.38C60.6171 80.1533 60.7304 79.9567 60.8704 79.79C61.0104 79.6167 61.1804 79.48 61.3804 79.38C61.5804 79.2733 61.8104 79.22 62.0704 79.22C62.3237 79.22 62.5504 79.2733 62.7504 79.38C62.9504 79.48 63.1204 79.6167 63.2604 79.79C63.4004 79.9567 63.5071 80.15 63.5804 80.37C63.6604 80.59 63.7037 80.82 63.7104 81.06ZM60.3704 81.59H64.3404C64.3537 81.23 64.3204 80.8767 64.2404 80.53C64.1604 80.1767 64.0271 79.8667 63.8404 79.6C63.6604 79.3267 63.4237 79.1067 63.1304 78.94C62.8371 78.7733 62.4837 78.69 62.0704 78.69C61.6637 78.69 61.3104 78.77 61.0104 78.93C60.7171 79.0833 60.4771 79.29 60.2904 79.55C60.1037 79.8033 59.9637 80.0933 59.8704 80.42C59.7837 80.7467 59.7404 81.08 59.7404 81.42C59.7404 81.7867 59.7837 82.1367 59.8704 82.47C59.9637 82.7967 60.1037 83.0867 60.2904 83.34C60.4771 83.5867 60.7171 83.7833 61.0104 83.93C61.3104 84.07 61.6637 84.14 62.0704 84.14C62.7237 84.14 63.2271 83.98 63.5804 83.66C63.9404 83.34 64.1871 82.8867 64.3204 82.3H63.6904C63.5904 82.7 63.4104 83.02 63.1504 83.26C62.8904 83.5 62.5304 83.62 62.0704 83.62C61.7704 83.62 61.5137 83.5567 61.3004 83.43C61.0871 83.3033 60.9104 83.1433 60.7704 82.95C60.6304 82.7567 60.5271 82.54 60.4604 82.3C60.4004 82.0533 60.3704 81.8167 60.3704 81.59ZM72.5091 84V76.86H71.8791V79.82H71.8591C71.7925 79.6333 71.6958 79.47 71.5691 79.33C71.4491 79.19 71.3091 79.0733 71.1491 78.98C70.9891 78.88 70.8158 78.8067 70.6291 78.76C70.4491 78.7133 70.2625 78.69 70.0691 78.69C69.6758 78.69 69.3325 78.7633 69.0391 78.91C68.7525 79.0567 68.5125 79.2567 68.3191 79.51C68.1258 79.7567 67.9825 80.0467 67.8891 80.38C67.7958 80.7067 67.7491 81.0533 67.7491 81.42C67.7491 81.7867 67.7958 82.1367 67.8891 82.47C67.9825 82.7967 68.1258 83.0867 68.3191 83.34C68.5125 83.5867 68.7525 83.7833 69.0391 83.93C69.3325 84.07 69.6758 84.14 70.0691 84.14C70.2558 84.14 70.4425 84.1133 70.6291 84.06C70.8225 84.0067 71.0025 83.9333 71.1691 83.84C71.3358 83.74 71.4825 83.62 71.6091 83.48C71.7425 83.34 71.8425 83.1867 71.9091 83.02H71.9291V84H72.5091ZM68.3791 81.42C68.3791 81.1533 68.4091 80.89 68.4691 80.63C68.5358 80.3633 68.6358 80.1267 68.7691 79.92C68.9091 79.7133 69.0858 79.5467 69.2991 79.42C69.5125 79.2867 69.7691 79.22 70.0691 79.22C70.4025 79.22 70.6825 79.2867 70.9091 79.42C71.1425 79.5467 71.3291 79.7133 71.4691 79.92C71.6158 80.1267 71.7191 80.3633 71.7791 80.63C71.8458 80.89 71.8791 81.1533 71.8791 81.42C71.8791 81.6867 71.8458 81.9533 71.7791 82.22C71.7191 82.48 71.6158 82.7133 71.4691 82.92C71.3291 83.1267 71.1425 83.2967 70.9091 83.43C70.6825 83.5567 70.4025 83.62 70.0691 83.62C69.7691 83.62 69.5125 83.5567 69.2991 83.43C69.0858 83.2967 68.9091 83.1267 68.7691 82.92C68.6358 82.7133 68.5358 82.48 68.4691 82.22C68.4091 81.9533 68.3791 81.6867 68.3791 81.42ZM77.4213 81.06H74.0813C74.108 80.8267 74.1613 80.6 74.2413 80.38C74.328 80.1533 74.4413 79.9567 74.5813 79.79C74.7213 79.6167 74.8913 79.48 75.0913 79.38C75.2913 79.2733 75.5213 79.22 75.7813 79.22C76.0347 79.22 76.2613 79.2733 76.4613 79.38C76.6613 79.48 76.8313 79.6167 76.9713 79.79C77.1113 79.9567 77.218 80.15 77.2913 80.37C77.3713 80.59 77.4147 80.82 77.4213 81.06ZM74.0813 81.59H78.0513C78.0647 81.23 78.0313 80.8767 77.9513 80.53C77.8713 80.1767 77.738 79.8667 77.5513 79.6C77.3713 79.3267 77.1347 79.1067 76.8413 78.94C76.548 78.7733 76.1947 78.69 75.7813 78.69C75.3747 78.69 75.0213 78.77 74.7213 78.93C74.428 79.0833 74.188 79.29 74.0013 79.55C73.8147 79.8033 73.6747 80.0933 73.5813 80.42C73.4947 80.7467 73.4513 81.08 73.4513 81.42C73.4513 81.7867 73.4947 82.1367 73.5813 82.47C73.6747 82.7967 73.8147 83.0867 74.0013 83.34C74.188 83.5867 74.428 83.7833 74.7213 83.93C75.0213 84.07 75.3747 84.14 75.7813 84.14C76.4347 84.14 76.938 83.98 77.2913 83.66C77.6513 83.34 77.898 82.8867 78.0313 82.3H77.4013C77.3013 82.7 77.1213 83.02 76.8613 83.26C76.6013 83.5 76.2413 83.62 75.7813 83.62C75.4813 83.62 75.2247 83.5567 75.0113 83.43C74.798 83.3033 74.6213 83.1433 74.4813 82.95C74.3413 82.7567 74.238 82.54 74.1713 82.3C74.1113 82.0533 74.0813 81.8167 74.0813 81.59ZM81.9869 80.35H82.6169C82.6035 80.07 82.5469 79.8267 82.4469 79.62C82.3469 79.4133 82.2102 79.24 82.0369 79.1C81.8702 78.96 81.6735 78.8567 81.4469 78.79C81.2269 78.7233 80.9869 78.69 80.7269 78.69C80.5002 78.69 80.2702 78.7167 80.0369 78.77C79.8102 78.8233 79.6035 78.9067 79.4169 79.02C79.2302 79.1333 79.0769 79.2833 78.9569 79.47C78.8435 79.6567 78.7869 79.88 78.7869 80.14C78.7869 80.36 78.8235 80.5467 78.8969 80.7C78.9702 80.8467 79.0702 80.9733 79.1969 81.08C79.3302 81.18 79.4835 81.2667 79.6569 81.34C79.8302 81.4067 80.0202 81.4667 80.2269 81.52L81.0369 81.7C81.1769 81.7333 81.3135 81.7733 81.4469 81.82C81.5869 81.8667 81.7102 81.9267 81.8169 82C81.9235 82.0667 82.0069 82.1533 82.0669 82.26C82.1335 82.36 82.1669 82.4867 82.1669 82.64C82.1669 82.82 82.1202 82.9733 82.0269 83.1C81.9402 83.22 81.8269 83.32 81.6869 83.4C81.5469 83.48 81.3935 83.5367 81.2269 83.57C81.0669 83.6033 80.9102 83.62 80.7569 83.62C80.3369 83.62 79.9835 83.5133 79.6969 83.3C79.4169 83.08 79.2635 82.7567 79.2369 82.33H78.6069C78.6602 82.9633 78.8735 83.4233 79.2469 83.71C79.6269 83.9967 80.1202 84.14 80.7269 84.14C80.9669 84.14 81.2102 84.1133 81.4569 84.06C81.7035 84.0067 81.9235 83.92 82.1169 83.8C82.3169 83.6733 82.4802 83.5133 82.6069 83.32C82.7335 83.12 82.7969 82.88 82.7969 82.6C82.7969 82.3733 82.7535 82.1767 82.6669 82.01C82.5802 81.8433 82.4669 81.7033 82.3269 81.59C82.1935 81.4767 82.0369 81.3867 81.8569 81.32C81.6835 81.2467 81.5069 81.1967 81.3269 81.17L80.4869 80.98C80.3802 80.9533 80.2635 80.92 80.1369 80.88C80.0102 80.8333 79.8935 80.7767 79.7869 80.71C79.6802 80.6433 79.5902 80.5633 79.5169 80.47C79.4502 80.37 79.4169 80.25 79.4169 80.11C79.4169 79.9433 79.4535 79.8033 79.5269 79.69C79.6002 79.5767 79.6969 79.4867 79.8169 79.42C79.9369 79.3467 80.0669 79.2967 80.2069 79.27C80.3535 79.2367 80.4969 79.22 80.6369 79.22C80.8169 79.22 80.9869 79.2433 81.1469 79.29C81.3069 79.33 81.4469 79.3967 81.5669 79.49C81.6935 79.5833 81.7935 79.7033 81.8669 79.85C81.9402 79.99 81.9802 80.1567 81.9869 80.35ZM83.7113 76.86V84H84.3413V82.04L85.3613 81.19L87.4013 84H88.1913L85.8413 80.75L88.0413 78.84H87.2013L84.3413 81.34V76.86H83.7113ZM89.7113 78.84V77.29H89.0813V78.84H88.1813V79.37H89.0813V82.9C89.0747 83.34 89.1547 83.6433 89.3213 83.81C89.488 83.97 89.7813 84.05 90.2013 84.05C90.2947 84.05 90.388 84.0467 90.4813 84.04C90.5747 84.0333 90.668 84.03 90.7613 84.03V83.5C90.5813 83.52 90.4013 83.53 90.2213 83.53C89.9947 83.5167 89.8513 83.4533 89.7913 83.34C89.738 83.22 89.7113 83.0567 89.7113 82.85V79.37H90.7613V78.84H89.7113ZM93.8503 79.22C94.1503 79.22 94.4136 79.2833 94.6403 79.41C94.867 79.5367 95.0536 79.7033 95.2003 79.91C95.3536 80.1167 95.467 80.3533 95.5403 80.62C95.6203 80.88 95.6603 81.1467 95.6603 81.42C95.6603 81.6933 95.6203 81.9633 95.5403 82.23C95.467 82.49 95.3536 82.7233 95.2003 82.93C95.0536 83.1367 94.867 83.3033 94.6403 83.43C94.4136 83.5567 94.1503 83.62 93.8503 83.62C93.5503 83.62 93.287 83.5567 93.0603 83.43C92.8336 83.3033 92.6436 83.1367 92.4903 82.93C92.3436 82.7233 92.2303 82.49 92.1503 82.23C92.077 81.9633 92.0403 81.6933 92.0403 81.42C92.0403 81.1467 92.077 80.88 92.1503 80.62C92.2303 80.3533 92.3436 80.1167 92.4903 79.91C92.6436 79.7033 92.8336 79.5367 93.0603 79.41C93.287 79.2833 93.5503 79.22 93.8503 79.22ZM93.8503 78.69C93.457 78.69 93.107 78.7633 92.8003 78.91C92.5003 79.0567 92.247 79.2533 92.0403 79.5C91.8336 79.7467 91.677 80.0367 91.5703 80.37C91.4636 80.6967 91.4103 81.0467 91.4103 81.42C91.4103 81.7933 91.4636 82.1467 91.5703 82.48C91.677 82.8067 91.8336 83.0933 92.0403 83.34C92.247 83.5867 92.5003 83.7833 92.8003 83.93C93.107 84.07 93.457 84.14 93.8503 84.14C94.2436 84.14 94.5903 84.07 94.8903 83.93C95.197 83.7833 95.4536 83.5867 95.6603 83.34C95.867 83.0933 96.0236 82.8067 96.1303 82.48C96.237 82.1467 96.2903 81.7933 96.2903 81.42C96.2903 81.0467 96.237 80.6967 96.1303 80.37C96.0236 80.0367 95.867 79.7467 95.6603 79.5C95.4536 79.2533 95.197 79.0567 94.8903 78.91C94.5903 78.7633 94.2436 78.69 93.8503 78.69ZM97.227 78.84V85.9H97.857V83.02H97.877C97.9436 83.2067 98.037 83.37 98.157 83.51C98.2836 83.65 98.427 83.7667 98.587 83.86C98.747 83.9533 98.9203 84.0233 99.107 84.07C99.2936 84.1167 99.4803 84.14 99.667 84.14C100.06 84.14 100.4 84.07 100.687 83.93C100.98 83.7833 101.224 83.5867 101.417 83.34C101.61 83.0867 101.754 82.7967 101.847 82.47C101.94 82.1367 101.987 81.7867 101.987 81.42C101.987 81.0533 101.94 80.7067 101.847 80.38C101.754 80.0467 101.61 79.7567 101.417 79.51C101.224 79.2567 100.98 79.0567 100.687 78.91C100.4 78.7633 100.06 78.69 99.667 78.69C99.247 78.69 98.8703 78.79 98.537 78.99C98.2103 79.1833 97.9736 79.46 97.827 79.82H97.807V78.84H97.227ZM101.357 81.42C101.357 81.6867 101.324 81.9533 101.257 82.22C101.197 82.48 101.097 82.7133 100.957 82.92C100.824 83.1267 100.65 83.2967 100.437 83.43C100.224 83.5567 99.967 83.62 99.667 83.62C99.3336 83.62 99.0503 83.5567 98.817 83.43C98.5903 83.2967 98.4036 83.1267 98.257 82.92C98.117 82.7133 98.0136 82.48 97.947 82.22C97.887 81.9533 97.857 81.6867 97.857 81.42C97.857 81.1267 97.8836 80.8467 97.937 80.58C97.997 80.3133 98.097 80.08 98.237 79.88C98.377 79.68 98.5636 79.52 98.797 79.4C99.0303 79.28 99.3203 79.22 99.667 79.22C99.967 79.22 100.224 79.2867 100.437 79.42C100.65 79.5467 100.824 79.7133 100.957 79.92C101.097 80.1267 101.197 80.3633 101.257 80.63C101.324 80.89 101.357 81.1533 101.357 81.42ZM105.692 80.42H106.322C106.336 80 106.469 79.6967 106.722 79.51C106.976 79.3167 107.302 79.22 107.702 79.22C107.889 79.22 108.062 79.2367 108.222 79.27C108.389 79.2967 108.532 79.35 108.652 79.43C108.779 79.51 108.876 79.62 108.942 79.76C109.016 79.8933 109.052 80.0667 109.052 80.28C109.052 80.42 109.032 80.5333 108.992 80.62C108.959 80.7067 108.909 80.7767 108.842 80.83C108.776 80.8767 108.692 80.91 108.592 80.93C108.492 80.95 108.376 80.9667 108.242 80.98C107.902 81.02 107.566 81.0633 107.232 81.11C106.906 81.15 106.609 81.2233 106.342 81.33C106.082 81.4367 105.872 81.5933 105.712 81.8C105.552 82 105.472 82.28 105.472 82.64C105.472 82.9 105.516 83.1267 105.602 83.32C105.696 83.5067 105.819 83.6633 105.972 83.79C106.132 83.91 106.316 83.9967 106.522 84.05C106.736 84.11 106.962 84.14 107.202 84.14C107.456 84.14 107.672 84.1167 107.852 84.07C108.039 84.0233 108.202 83.9567 108.342 83.87C108.489 83.7833 108.619 83.6767 108.732 83.55C108.852 83.4167 108.969 83.2667 109.082 83.1H109.102C109.102 83.2333 109.109 83.3567 109.122 83.47C109.142 83.5767 109.179 83.67 109.232 83.75C109.286 83.83 109.359 83.8933 109.452 83.94C109.552 83.98 109.682 84 109.842 84C109.929 84 109.999 83.9967 110.052 83.99C110.112 83.9833 110.179 83.9733 110.252 83.96V83.43C110.192 83.4567 110.126 83.47 110.052 83.47C109.806 83.47 109.682 83.3433 109.682 83.09V80.35C109.682 80.0033 109.626 79.7233 109.512 79.51C109.399 79.29 109.252 79.12 109.072 79C108.892 78.88 108.689 78.8 108.462 78.76C108.236 78.7133 108.009 78.69 107.782 78.69C107.482 78.69 107.209 78.7233 106.962 78.79C106.716 78.8567 106.499 78.96 106.312 79.1C106.132 79.24 105.989 79.42 105.882 79.64C105.776 79.86 105.712 80.12 105.692 80.42ZM109.052 81.18V82C109.052 82.2533 109.002 82.48 108.902 82.68C108.809 82.88 108.679 83.05 108.512 83.19C108.352 83.33 108.162 83.4367 107.942 83.51C107.722 83.5833 107.492 83.62 107.252 83.62C107.106 83.62 106.962 83.5967 106.822 83.55C106.682 83.5033 106.559 83.4367 106.452 83.35C106.346 83.2567 106.259 83.15 106.192 83.03C106.132 82.9033 106.102 82.76 106.102 82.6C106.102 82.3467 106.176 82.1533 106.322 82.02C106.476 81.88 106.669 81.7733 106.902 81.7C107.136 81.6267 107.392 81.5733 107.672 81.54C107.959 81.5 108.236 81.4567 108.502 81.41C108.589 81.3967 108.689 81.3733 108.802 81.34C108.916 81.3067 108.992 81.2533 109.032 81.18H109.052ZM110.938 78.84V85.9H111.568V83.02H111.588C111.655 83.2067 111.748 83.37 111.868 83.51C111.995 83.65 112.138 83.7667 112.298 83.86C112.458 83.9533 112.631 84.0233 112.818 84.07C113.005 84.1167 113.191 84.14 113.378 84.14C113.771 84.14 114.111 84.07 114.398 83.93C114.691 83.7833 114.935 83.5867 115.128 83.34C115.321 83.0867 115.465 82.7967 115.558 82.47C115.651 82.1367 115.698 81.7867 115.698 81.42C115.698 81.0533 115.651 80.7067 115.558 80.38C115.465 80.0467 115.321 79.7567 115.128 79.51C114.935 79.2567 114.691 79.0567 114.398 78.91C114.111 78.7633 113.771 78.69 113.378 78.69C112.958 78.69 112.581 78.79 112.248 78.99C111.921 79.1833 111.685 79.46 111.538 79.82H111.518V78.84H110.938ZM115.068 81.42C115.068 81.6867 115.035 81.9533 114.968 82.22C114.908 82.48 114.808 82.7133 114.668 82.92C114.535 83.1267 114.361 83.2967 114.148 83.43C113.935 83.5567 113.678 83.62 113.378 83.62C113.045 83.62 112.761 83.5567 112.528 83.43C112.301 83.2967 112.115 83.1267 111.968 82.92C111.828 82.7133 111.725 82.48 111.658 82.22C111.598 81.9533 111.568 81.6867 111.568 81.42C111.568 81.1267 111.595 80.8467 111.648 80.58C111.708 80.3133 111.808 80.08 111.948 79.88C112.088 79.68 112.275 79.52 112.508 79.4C112.741 79.28 113.031 79.22 113.378 79.22C113.678 79.22 113.935 79.2867 114.148 79.42C114.361 79.5467 114.535 79.7133 114.668 79.92C114.808 80.1267 114.908 80.3633 114.968 80.63C115.035 80.89 115.068 81.1533 115.068 81.42ZM116.68 78.84V85.9H117.31V83.02H117.33C117.397 83.2067 117.49 83.37 117.61 83.51C117.737 83.65 117.88 83.7667 118.04 83.86C118.2 83.9533 118.373 84.0233 118.56 84.07C118.747 84.1167 118.933 84.14 119.12 84.14C119.513 84.14 119.853 84.07 120.14 83.93C120.433 83.7833 120.677 83.5867 120.87 83.34C121.063 83.0867 121.207 82.7967 121.3 82.47C121.393 82.1367 121.44 81.7867 121.44 81.42C121.44 81.0533 121.393 80.7067 121.3 80.38C121.207 80.0467 121.063 79.7567 120.87 79.51C120.677 79.2567 120.433 79.0567 120.14 78.91C119.853 78.7633 119.513 78.69 119.12 78.69C118.7 78.69 118.323 78.79 117.99 78.99C117.663 79.1833 117.427 79.46 117.28 79.82H117.26V78.84H116.68ZM120.81 81.42C120.81 81.6867 120.777 81.9533 120.71 82.22C120.65 82.48 120.55 82.7133 120.41 82.92C120.277 83.1267 120.103 83.2967 119.89 83.43C119.677 83.5567 119.42 83.62 119.12 83.62C118.787 83.62 118.503 83.5567 118.27 83.43C118.043 83.2967 117.857 83.1267 117.71 82.92C117.57 82.7133 117.467 82.48 117.4 82.22C117.34 81.9533 117.31 81.6867 117.31 81.42C117.31 81.1267 117.337 80.8467 117.39 80.58C117.45 80.3133 117.55 80.08 117.69 79.88C117.83 79.68 118.017 79.52 118.25 79.4C118.483 79.28 118.773 79.22 119.12 79.22C119.42 79.22 119.677 79.2867 119.89 79.42C120.103 79.5467 120.277 79.7133 120.41 79.92C120.55 80.1267 120.65 80.3633 120.71 80.63C120.777 80.89 120.81 81.1533 120.81 81.42ZM127.195 79.37V78.84H126.175V78.39C126.175 78.25 126.179 78.12 126.185 78C126.192 77.88 126.215 77.7767 126.255 77.69C126.302 77.5967 126.372 77.5233 126.465 77.47C126.559 77.4167 126.692 77.39 126.865 77.39C126.939 77.39 127.012 77.3967 127.085 77.41C127.159 77.4167 127.239 77.4267 127.325 77.44V76.9C127.225 76.8867 127.135 76.8767 127.055 76.87C126.975 76.8633 126.889 76.86 126.795 76.86C126.542 76.86 126.332 76.8967 126.165 76.97C126.005 77.0433 125.879 77.1467 125.785 77.28C125.692 77.4133 125.629 77.5733 125.595 77.76C125.562 77.9467 125.545 78.15 125.545 78.37V78.84H124.665V79.37H125.545V84H126.175V79.37H127.195ZM129.973 79.22C130.273 79.22 130.537 79.2833 130.763 79.41C130.99 79.5367 131.177 79.7033 131.323 79.91C131.477 80.1167 131.59 80.3533 131.663 80.62C131.743 80.88 131.783 81.1467 131.783 81.42C131.783 81.6933 131.743 81.9633 131.663 82.23C131.59 82.49 131.477 82.7233 131.323 82.93C131.177 83.1367 130.99 83.3033 130.763 83.43C130.537 83.5567 130.273 83.62 129.973 83.62C129.673 83.62 129.41 83.5567 129.183 83.43C128.957 83.3033 128.767 83.1367 128.613 82.93C128.467 82.7233 128.353 82.49 128.273 82.23C128.2 81.9633 128.163 81.6933 128.163 81.42C128.163 81.1467 128.2 80.88 128.273 80.62C128.353 80.3533 128.467 80.1167 128.613 79.91C128.767 79.7033 128.957 79.5367 129.183 79.41C129.41 79.2833 129.673 79.22 129.973 79.22ZM129.973 78.69C129.58 78.69 129.23 78.7633 128.923 78.91C128.623 79.0567 128.37 79.2533 128.163 79.5C127.957 79.7467 127.8 80.0367 127.693 80.37C127.587 80.6967 127.533 81.0467 127.533 81.42C127.533 81.7933 127.587 82.1467 127.693 82.48C127.8 82.8067 127.957 83.0933 128.163 83.34C128.37 83.5867 128.623 83.7833 128.923 83.93C129.23 84.07 129.58 84.14 129.973 84.14C130.367 84.14 130.713 84.07 131.013 83.93C131.32 83.7833 131.577 83.5867 131.783 83.34C131.99 83.0933 132.147 82.8067 132.253 82.48C132.36 82.1467 132.413 81.7933 132.413 81.42C132.413 81.0467 132.36 80.6967 132.253 80.37C132.147 80.0367 131.99 79.7467 131.783 79.5C131.577 79.2533 131.32 79.0567 131.013 78.91C130.713 78.7633 130.367 78.69 129.973 78.69ZM133.35 78.84V84H133.98V81.25C133.98 80.9767 134.027 80.7267 134.12 80.5C134.213 80.2667 134.343 80.0667 134.51 79.9C134.683 79.7333 134.887 79.6067 135.12 79.52C135.353 79.4267 135.613 79.3867 135.9 79.4V78.77C135.433 78.75 135.03 78.8533 134.69 79.08C134.357 79.3067 134.11 79.63 133.95 80.05H133.93V78.84H133.35ZM138.647 76.86V77.44H141.128V84H141.808V77.44H144.298V76.86H138.647ZM147.441 81.06H144.101C144.128 80.8267 144.181 80.6 144.261 80.38C144.348 80.1533 144.461 79.9567 144.601 79.79C144.741 79.6167 144.911 79.48 145.111 79.38C145.311 79.2733 145.541 79.22 145.801 79.22C146.054 79.22 146.281 79.2733 146.481 79.38C146.681 79.48 146.851 79.6167 146.991 79.79C147.131 79.9567 147.238 80.15 147.311 80.37C147.391 80.59 147.434 80.82 147.441 81.06ZM144.101 81.59H148.071C148.084 81.23 148.051 80.8767 147.971 80.53C147.891 80.1767 147.758 79.8667 147.571 79.6C147.391 79.3267 147.154 79.1067 146.861 78.94C146.568 78.7733 146.214 78.69 145.801 78.69C145.394 78.69 145.041 78.77 144.741 78.93C144.448 79.0833 144.208 79.29 144.021 79.55C143.834 79.8033 143.694 80.0933 143.601 80.42C143.514 80.7467 143.471 81.08 143.471 81.42C143.471 81.7867 143.514 82.1367 143.601 82.47C143.694 82.7967 143.834 83.0867 144.021 83.34C144.208 83.5867 144.448 83.7833 144.741 83.93C145.041 84.07 145.394 84.14 145.801 84.14C146.454 84.14 146.958 83.98 147.311 83.66C147.671 83.34 147.918 82.8867 148.051 82.3H147.421C147.321 82.7 147.141 83.02 146.881 83.26C146.621 83.5 146.261 83.62 145.801 83.62C145.501 83.62 145.244 83.5567 145.031 83.43C144.818 83.3033 144.641 83.1433 144.501 82.95C144.361 82.7567 144.258 82.54 144.191 82.3C144.131 82.0533 144.101 81.8167 144.101 81.59ZM152.006 80.35H152.636C152.623 80.07 152.566 79.8267 152.466 79.62C152.366 79.4133 152.23 79.24 152.056 79.1C151.89 78.96 151.693 78.8567 151.466 78.79C151.246 78.7233 151.006 78.69 150.746 78.69C150.52 78.69 150.29 78.7167 150.056 78.77C149.83 78.8233 149.623 78.9067 149.436 79.02C149.25 79.1333 149.096 79.2833 148.976 79.47C148.863 79.6567 148.806 79.88 148.806 80.14C148.806 80.36 148.843 80.5467 148.916 80.7C148.99 80.8467 149.09 80.9733 149.216 81.08C149.35 81.18 149.503 81.2667 149.676 81.34C149.85 81.4067 150.04 81.4667 150.246 81.52L151.056 81.7C151.196 81.7333 151.333 81.7733 151.466 81.82C151.606 81.8667 151.73 81.9267 151.836 82C151.943 82.0667 152.026 82.1533 152.086 82.26C152.153 82.36 152.186 82.4867 152.186 82.64C152.186 82.82 152.14 82.9733 152.046 83.1C151.96 83.22 151.846 83.32 151.706 83.4C151.566 83.48 151.413 83.5367 151.246 83.57C151.086 83.6033 150.93 83.62 150.776 83.62C150.356 83.62 150.003 83.5133 149.716 83.3C149.436 83.08 149.283 82.7567 149.256 82.33H148.626C148.68 82.9633 148.893 83.4233 149.266 83.71C149.646 83.9967 150.14 84.14 150.746 84.14C150.986 84.14 151.23 84.1133 151.476 84.06C151.723 84.0067 151.943 83.92 152.136 83.8C152.336 83.6733 152.5 83.5133 152.626 83.32C152.753 83.12 152.816 82.88 152.816 82.6C152.816 82.3733 152.773 82.1767 152.686 82.01C152.6 81.8433 152.486 81.7033 152.346 81.59C152.213 81.4767 152.056 81.3867 151.876 81.32C151.703 81.2467 151.526 81.1967 151.346 81.17L150.506 80.98C150.4 80.9533 150.283 80.92 150.156 80.88C150.03 80.8333 149.913 80.7767 149.806 80.71C149.7 80.6433 149.61 80.5633 149.536 80.47C149.47 80.37 149.436 80.25 149.436 80.11C149.436 79.9433 149.473 79.8033 149.546 79.69C149.62 79.5767 149.716 79.4867 149.836 79.42C149.956 79.3467 150.086 79.2967 150.226 79.27C150.373 79.2367 150.516 79.22 150.656 79.22C150.836 79.22 151.006 79.2433 151.166 79.29C151.326 79.33 151.466 79.3967 151.586 79.49C151.713 79.5833 151.813 79.7033 151.886 79.85C151.96 79.99 152 80.1567 152.006 80.35ZM153.741 76.86V84H154.371V76.86H153.741ZM155.517 80.42H156.147C156.16 80 156.293 79.6967 156.547 79.51C156.8 79.3167 157.127 79.22 157.527 79.22C157.713 79.22 157.887 79.2367 158.047 79.27C158.213 79.2967 158.357 79.35 158.477 79.43C158.603 79.51 158.7 79.62 158.767 79.76C158.84 79.8933 158.877 80.0667 158.877 80.28C158.877 80.42 158.857 80.5333 158.817 80.62C158.783 80.7067 158.733 80.7767 158.667 80.83C158.6 80.8767 158.517 80.91 158.417 80.93C158.317 80.95 158.2 80.9667 158.067 80.98C157.727 81.02 157.39 81.0633 157.057 81.11C156.73 81.15 156.433 81.2233 156.167 81.33C155.907 81.4367 155.697 81.5933 155.537 81.8C155.377 82 155.297 82.28 155.297 82.64C155.297 82.9 155.34 83.1267 155.427 83.32C155.52 83.5067 155.643 83.6633 155.797 83.79C155.957 83.91 156.14 83.9967 156.347 84.05C156.56 84.11 156.787 84.14 157.027 84.14C157.28 84.14 157.497 84.1167 157.677 84.07C157.863 84.0233 158.027 83.9567 158.167 83.87C158.313 83.7833 158.443 83.6767 158.557 83.55C158.677 83.4167 158.793 83.2667 158.907 83.1H158.927C158.927 83.2333 158.933 83.3567 158.947 83.47C158.967 83.5767 159.003 83.67 159.057 83.75C159.11 83.83 159.183 83.8933 159.277 83.94C159.377 83.98 159.507 84 159.667 84C159.753 84 159.823 83.9967 159.877 83.99C159.937 83.9833 160.003 83.9733 160.077 83.96V83.43C160.017 83.4567 159.95 83.47 159.877 83.47C159.63 83.47 159.507 83.3433 159.507 83.09V80.35C159.507 80.0033 159.45 79.7233 159.337 79.51C159.223 79.29 159.077 79.12 158.897 79C158.717 78.88 158.513 78.8 158.287 78.76C158.06 78.7133 157.833 78.69 157.607 78.69C157.307 78.69 157.033 78.7233 156.787 78.79C156.54 78.8567 156.323 78.96 156.137 79.1C155.957 79.24 155.813 79.42 155.707 79.64C155.6 79.86 155.537 80.12 155.517 80.42ZM158.877 81.18V82C158.877 82.2533 158.827 82.48 158.727 82.68C158.633 82.88 158.503 83.05 158.337 83.19C158.177 83.33 157.987 83.4367 157.767 83.51C157.547 83.5833 157.317 83.62 157.077 83.62C156.93 83.62 156.787 83.5967 156.647 83.55C156.507 83.5033 156.383 83.4367 156.277 83.35C156.17 83.2567 156.083 83.15 156.017 83.03C155.957 82.9033 155.927 82.76 155.927 82.6C155.927 82.3467 156 82.1533 156.147 82.02C156.3 81.88 156.493 81.7733 156.727 81.7C156.96 81.6267 157.217 81.5733 157.497 81.54C157.783 81.5 158.06 81.4567 158.327 81.41C158.413 81.3967 158.513 81.3733 158.627 81.34C158.74 81.3067 158.817 81.2533 158.857 81.18H158.877ZM162.965 78.84L164.955 84H165.625L167.555 78.84H166.905L165.305 83.37H165.285L163.665 78.84H162.965ZM171.884 81.06H168.544C168.571 80.8267 168.624 80.6 168.704 80.38C168.791 80.1533 168.904 79.9567 169.044 79.79C169.184 79.6167 169.354 79.48 169.554 79.38C169.754 79.2733 169.984 79.22 170.244 79.22C170.498 79.22 170.724 79.2733 170.924 79.38C171.124 79.48 171.294 79.6167 171.434 79.79C171.574 79.9567 171.681 80.15 171.754 80.37C171.834 80.59 171.878 80.82 171.884 81.06ZM168.544 81.59H172.514C172.528 81.23 172.494 80.8767 172.414 80.53C172.334 80.1767 172.201 79.8667 172.014 79.6C171.834 79.3267 171.598 79.1067 171.304 78.94C171.011 78.7733 170.658 78.69 170.244 78.69C169.838 78.69 169.484 78.77 169.184 78.93C168.891 79.0833 168.651 79.29 168.464 79.55C168.278 79.8033 168.138 80.0933 168.044 80.42C167.958 80.7467 167.914 81.08 167.914 81.42C167.914 81.7867 167.958 82.1367 168.044 82.47C168.138 82.7967 168.278 83.0867 168.464 83.34C168.651 83.5867 168.891 83.7833 169.184 83.93C169.484 84.07 169.838 84.14 170.244 84.14C170.898 84.14 171.401 83.98 171.754 83.66C172.114 83.34 172.361 82.8867 172.494 82.3H171.864C171.764 82.7 171.584 83.02 171.324 83.26C171.064 83.5 170.704 83.62 170.244 83.62C169.944 83.62 169.688 83.5567 169.474 83.43C169.261 83.3033 169.084 83.1433 168.944 82.95C168.804 82.7567 168.701 82.54 168.634 82.3C168.574 82.0533 168.544 81.8167 168.544 81.59ZM173.35 76.86V84H173.98V80.99C173.986 80.7367 174.026 80.5033 174.1 80.29C174.18 80.07 174.286 79.8833 174.42 79.73C174.56 79.57 174.726 79.4467 174.92 79.36C175.12 79.2667 175.346 79.22 175.6 79.22C175.853 79.22 176.063 79.26 176.23 79.34C176.403 79.42 176.54 79.53 176.64 79.67C176.74 79.81 176.81 79.9767 176.85 80.17C176.89 80.3567 176.91 80.56 176.91 80.78V84H177.54V80.68C177.54 80.3733 177.51 80.0967 177.45 79.85C177.39 79.6033 177.286 79.3967 177.14 79.23C176.993 79.0567 176.796 78.9233 176.55 78.83C176.31 78.7367 176.01 78.69 175.65 78.69C175.283 78.69 174.946 78.7867 174.64 78.98C174.333 79.1667 174.12 79.4167 174 79.73H173.98V76.86H173.35ZM178.741 76.86V77.87H179.371V76.86H178.741ZM178.741 78.84V84H179.371V78.84H178.741ZM184.217 80.46H184.847C184.773 79.8667 184.543 79.4233 184.157 79.13C183.777 78.8367 183.31 78.69 182.757 78.69C182.363 78.69 182.013 78.7633 181.707 78.91C181.407 79.0567 181.153 79.2533 180.947 79.5C180.74 79.7467 180.583 80.0367 180.477 80.37C180.37 80.6967 180.317 81.0467 180.317 81.42C180.317 81.7933 180.37 82.1467 180.477 82.48C180.583 82.8067 180.74 83.0933 180.947 83.34C181.153 83.5867 181.407 83.7833 181.707 83.93C182.013 84.07 182.363 84.14 182.757 84.14C183.343 84.14 183.823 83.9667 184.197 83.62C184.57 83.2667 184.8 82.7767 184.887 82.15H184.257C184.237 82.3633 184.183 82.56 184.097 82.74C184.01 82.92 183.9 83.0767 183.767 83.21C183.633 83.3367 183.48 83.4367 183.307 83.51C183.133 83.5833 182.95 83.62 182.757 83.62C182.457 83.62 182.193 83.5567 181.967 83.43C181.74 83.3033 181.55 83.1367 181.397 82.93C181.25 82.7233 181.137 82.49 181.057 82.23C180.983 81.9633 180.947 81.6933 180.947 81.42C180.947 81.1467 180.983 80.88 181.057 80.62C181.137 80.3533 181.25 80.1167 181.397 79.91C181.55 79.7033 181.74 79.5367 181.967 79.41C182.193 79.2833 182.457 79.22 182.757 79.22C183.177 79.22 183.503 79.33 183.737 79.55C183.97 79.77 184.13 80.0733 184.217 80.46ZM185.772 76.86V84H186.402V76.86H185.772ZM191.318 81.06H187.978C188.004 80.8267 188.058 80.6 188.138 80.38C188.224 80.1533 188.338 79.9567 188.478 79.79C188.618 79.6167 188.788 79.48 188.988 79.38C189.188 79.2733 189.418 79.22 189.678 79.22C189.931 79.22 190.158 79.2733 190.358 79.38C190.558 79.48 190.728 79.6167 190.868 79.79C191.008 79.9567 191.114 80.15 191.188 80.37C191.268 80.59 191.311 80.82 191.318 81.06ZM187.978 81.59H191.948C191.961 81.23 191.928 80.8767 191.848 80.53C191.768 80.1767 191.634 79.8667 191.448 79.6C191.268 79.3267 191.031 79.1067 190.738 78.94C190.444 78.7733 190.091 78.69 189.678 78.69C189.271 78.69 188.918 78.77 188.618 78.93C188.324 79.0833 188.084 79.29 187.898 79.55C187.711 79.8033 187.571 80.0933 187.478 80.42C187.391 80.7467 187.348 81.08 187.348 81.42C187.348 81.7867 187.391 82.1367 187.478 82.47C187.571 82.7967 187.711 83.0867 187.898 83.34C188.084 83.5867 188.324 83.7833 188.618 83.93C188.918 84.07 189.271 84.14 189.678 84.14C190.331 84.14 190.834 83.98 191.188 83.66C191.548 83.34 191.794 82.8867 191.928 82.3H191.298C191.198 82.7 191.018 83.02 190.758 83.26C190.498 83.5 190.138 83.62 189.678 83.62C189.378 83.62 189.121 83.5567 188.908 83.43C188.694 83.3033 188.518 83.1433 188.378 82.95C188.238 82.7567 188.134 82.54 188.068 82.3C188.008 82.0533 187.978 81.8167 187.978 81.59ZM195.883 80.35H196.513C196.5 80.07 196.443 79.8267 196.343 79.62C196.243 79.4133 196.107 79.24 195.933 79.1C195.767 78.96 195.57 78.8567 195.343 78.79C195.123 78.7233 194.883 78.69 194.623 78.69C194.397 78.69 194.167 78.7167 193.933 78.77C193.707 78.8233 193.5 78.9067 193.313 79.02C193.127 79.1333 192.973 79.2833 192.853 79.47C192.74 79.6567 192.683 79.88 192.683 80.14C192.683 80.36 192.72 80.5467 192.793 80.7C192.867 80.8467 192.967 80.9733 193.093 81.08C193.227 81.18 193.38 81.2667 193.553 81.34C193.727 81.4067 193.917 81.4667 194.123 81.52L194.933 81.7C195.073 81.7333 195.21 81.7733 195.343 81.82C195.483 81.8667 195.607 81.9267 195.713 82C195.82 82.0667 195.903 82.1533 195.963 82.26C196.03 82.36 196.063 82.4867 196.063 82.64C196.063 82.82 196.017 82.9733 195.923 83.1C195.837 83.22 195.723 83.32 195.583 83.4C195.443 83.48 195.29 83.5367 195.123 83.57C194.963 83.6033 194.807 83.62 194.653 83.62C194.233 83.62 193.88 83.5133 193.593 83.3C193.313 83.08 193.16 82.7567 193.133 82.33H192.503C192.557 82.9633 192.77 83.4233 193.143 83.71C193.523 83.9967 194.017 84.14 194.623 84.14C194.863 84.14 195.107 84.1133 195.353 84.06C195.6 84.0067 195.82 83.92 196.013 83.8C196.213 83.6733 196.377 83.5133 196.503 83.32C196.63 83.12 196.693 82.88 196.693 82.6C196.693 82.3733 196.65 82.1767 196.563 82.01C196.477 81.8433 196.363 81.7033 196.223 81.59C196.09 81.4767 195.933 81.3867 195.753 81.32C195.58 81.2467 195.403 81.1967 195.223 81.17L194.383 80.98C194.277 80.9533 194.16 80.92 194.033 80.88C193.907 80.8333 193.79 80.7767 193.683 80.71C193.577 80.6433 193.487 80.5633 193.413 80.47C193.347 80.37 193.313 80.25 193.313 80.11C193.313 79.9433 193.35 79.8033 193.423 79.69C193.497 79.5767 193.593 79.4867 193.713 79.42C193.833 79.3467 193.963 79.2967 194.103 79.27C194.25 79.2367 194.393 79.22 194.533 79.22C194.713 79.22 194.883 79.2433 195.043 79.29C195.203 79.33 195.343 79.3967 195.463 79.49C195.59 79.5833 195.69 79.7033 195.763 79.85C195.837 79.99 195.877 80.1567 195.883 80.35Z" fill="#E1E1E1" fill-opacity="0.37"/>
<path d="M133 66V52.2H149V66H146.333V55.5H135.667V66H133ZM135.667 47.6C134.917 47.6 134.285 47.1568 133.771 46.2703C133.257 45.3599 133 44.2698 133 43H149C149 44.2937 148.736 45.3839 148.208 46.2703C147.681 47.1568 147.056 47.6 146.333 47.6H135.667Z" fill="white"/>
<path d="M56.848 43.536C57.424 43.536 57.872 43.792 58.192 44.304C62.3093 51.1307 66.096 57.6267 69.552 63.792V44.24C69.552 44.0693 69.6053 43.92 69.712 43.792C69.84 43.664 70 43.6 70.192 43.6H70.512C70.704 43.6 70.8533 43.664 70.96 43.792C71.088 43.92 71.152 44.0693 71.152 44.24V64.816C71.152 65.2427 71.024 65.5627 70.768 65.776C70.5333 65.968 70.192 66.064 69.744 66.064C69.296 66.064 68.9227 65.8293 68.624 65.36L57.264 45.872V65.36C57.264 65.5307 57.2 65.68 57.072 65.808C56.944 65.936 56.7947 66 56.624 66H56.272C56.1013 66 55.952 65.936 55.824 65.808C55.7173 65.68 55.664 65.5307 55.664 65.36V44.848C55.664 43.9733 56.0587 43.536 56.848 43.536ZM76.1955 43.6H76.4835C76.6542 43.6 76.8035 43.664 76.9315 43.792C77.0595 43.92 77.1235 44.0693 77.1235 44.24V65.36C77.1235 65.5307 77.0595 65.68 76.9315 65.808C76.8035 65.936 76.6542 66 76.4835 66H76.1955C76.0035 66 75.8435 65.936 75.7155 65.808C75.6088 65.68 75.5555 65.5307 75.5555 65.36V44.24C75.5555 44.0693 75.6088 43.92 75.7155 43.792C75.8435 43.664 76.0035 43.6 76.1955 43.6ZM94.4418 43.6H94.7938C94.9858 43.6 95.1458 43.664 95.2738 43.792C95.4658 44.0053 95.4871 44.2507 95.3378 44.528L89.7378 54.576L95.7537 65.072C95.8178 65.2 95.8498 65.3173 95.8498 65.424C95.8498 65.808 95.6364 66 95.2098 66H94.8578C94.6231 66 94.4631 65.936 94.3778 65.808L88.8738 56.176L84.0098 65.136C83.6258 65.776 83.1991 66.096 82.7298 66.096C81.9191 66.096 81.5138 65.6693 81.5138 64.816V44.24C81.5138 44.0693 81.5671 43.92 81.6738 43.792C81.8018 43.664 81.9618 43.6 82.1538 43.6H82.4738C82.6658 43.6 82.8151 43.664 82.9218 43.792C83.0498 43.92 83.1138 44.0693 83.1138 44.24V63.44L89.4498 51.856L93.9938 43.792C94.0791 43.664 94.2284 43.6 94.4418 43.6ZM102.131 44.368C102.899 44.0267 103.571 43.8133 104.147 43.728C104.723 43.6427 105.31 43.6 105.907 43.6C106.526 43.6 107.134 43.6533 107.731 43.76C108.329 43.8453 109.001 44.0587 109.747 44.4C110.515 44.7413 111.177 45.1893 111.731 45.744C112.286 46.2773 112.755 47.0453 113.139 48.048C113.523 49.0293 113.715 50.1707 113.715 51.472V57.968C113.715 59.312 113.513 60.496 113.107 61.52C112.723 62.544 112.243 63.3333 111.667 63.888C111.113 64.4427 110.462 64.8907 109.715 65.232C108.521 65.7653 107.262 66.032 105.939 66.032C104.553 66.032 103.369 65.7973 102.387 65.328C101.427 64.8587 100.67 64.3467 100.115 63.792C99.5606 63.2373 99.0913 62.4587 98.7073 61.456C98.3233 60.432 98.1313 59.2693 98.1313 57.968V51.472C98.1313 50.128 98.3233 48.9547 98.7073 47.952C99.1126 46.9493 99.5926 46.1813 100.147 45.648C100.702 45.1147 101.363 44.688 102.131 44.368ZM108.915 45.808C108.318 45.5307 107.785 45.36 107.315 45.296C106.867 45.2107 106.398 45.168 105.907 45.168C105.438 45.168 104.969 45.2107 104.499 45.296C104.03 45.36 103.486 45.5307 102.867 45.808C102.27 46.064 101.747 46.416 101.299 46.864C100.851 47.2907 100.467 47.92 100.147 48.752C99.8486 49.5627 99.6993 50.512 99.6993 51.6V57.872C99.6993 58.96 99.8486 59.92 100.147 60.752C100.467 61.584 100.851 62.2347 101.299 62.704C101.769 63.152 102.302 63.5147 102.899 63.792C103.497 64.0693 104.03 64.2507 104.499 64.336C104.99 64.4213 105.47 64.464 105.939 64.464C106.409 64.464 106.878 64.4213 107.347 64.336C107.838 64.2507 108.382 64.0693 108.979 63.792C109.577 63.5147 110.099 63.152 110.547 62.704C110.995 62.2347 111.369 61.584 111.667 60.752C111.987 59.92 112.147 58.96 112.147 57.872V51.6C112.147 50.512 111.987 49.5627 111.667 48.752C111.347 47.92 110.963 47.2907 110.515 46.864C110.067 46.416 109.534 46.064 108.915 45.808ZM118.21 43.6H118.53C118.7 43.6 118.85 43.664 118.978 43.792C119.106 43.92 119.17 44.0693 119.17 44.24V64.432H129.858C130.263 64.432 130.466 64.6453 130.466 65.072V65.36C130.466 65.5307 130.402 65.68 130.274 65.808C130.167 65.936 130.028 66 129.858 66H118.882C118.007 66 117.57 65.5413 117.57 64.624V44.24C117.57 44.0693 117.634 43.92 117.762 43.792C117.89 43.664 118.039 43.6 118.21 43.6Z" fill="#A7A7A7"/>
</svg>
