<svg width="226" height="97" viewBox="0 0 226 97" fill="none" xmlns="http://www.w3.org/2000/svg">
<path d="M141 66V52.2H157V66H154.333V55.5H143.667V66H141ZM143.667 47.6C142.917 47.6 142.285 47.1568 141.771 46.2703C141.257 45.3599 141 44.2698 141 43H157C157 44.2937 156.736 45.3839 156.208 46.2703C155.681 47.1568 155.056 47.6 154.333 47.6H143.667Z" fill="white"/>
<path d="M64.848 43.536C65.424 43.536 65.872 43.792 66.192 44.304C70.3093 51.1307 74.096 57.6267 77.552 63.792V44.24C77.552 44.0693 77.6053 43.92 77.712 43.792C77.84 43.664 78 43.6 78.192 43.6H78.512C78.704 43.6 78.8533 43.664 78.96 43.792C79.088 43.92 79.152 44.0693 79.152 44.24V64.816C79.152 65.2427 79.024 65.5627 78.768 65.776C78.5333 65.968 78.192 66.064 77.744 66.064C77.296 66.064 76.9227 65.8293 76.624 65.36L65.264 45.872V65.36C65.264 65.5307 65.2 65.68 65.072 65.808C64.944 65.936 64.7947 66 64.624 66H64.272C64.1013 66 63.952 65.936 63.824 65.808C63.7173 65.68 63.664 65.5307 63.664 65.36V44.848C63.664 43.9733 64.0587 43.536 64.848 43.536ZM84.1955 43.6H84.4835C84.6542 43.6 84.8035 43.664 84.9315 43.792C85.0595 43.92 85.1235 44.0693 85.1235 44.24V65.36C85.1235 65.5307 85.0595 65.68 84.9315 65.808C84.8035 65.936 84.6542 66 84.4835 66H84.1955C84.0035 66 83.8435 65.936 83.7155 65.808C83.6088 65.68 83.5555 65.5307 83.5555 65.36V44.24C83.5555 44.0693 83.6088 43.92 83.7155 43.792C83.8435 43.664 84.0035 43.6 84.1955 43.6ZM102.442 43.6H102.794C102.986 43.6 103.146 43.664 103.274 43.792C103.466 44.0053 103.487 44.2507 103.338 44.528L97.7378 54.576L103.754 65.072C103.818 65.2 103.85 65.3173 103.85 65.424C103.85 65.808 103.636 66 103.21 66H102.858C102.623 66 102.463 65.936 102.378 65.808L96.8738 56.176L92.0098 65.136C91.6258 65.776 91.1991 66.096 90.7298 66.096C89.9191 66.096 89.5138 65.6693 89.5138 64.816V44.24C89.5138 44.0693 89.5671 43.92 89.6738 43.792C89.8018 43.664 89.9618 43.6 90.1538 43.6H90.4738C90.6658 43.6 90.8151 43.664 90.9218 43.792C91.0498 43.92 91.1138 44.0693 91.1138 44.24V63.44L97.4498 51.856L101.994 43.792C102.079 43.664 102.228 43.6 102.442 43.6ZM110.131 44.368C110.899 44.0267 111.571 43.8133 112.147 43.728C112.723 43.6427 113.31 43.6 113.907 43.6C114.526 43.6 115.134 43.6533 115.731 43.76C116.329 43.8453 117.001 44.0587 117.747 44.4C118.515 44.7413 119.177 45.1893 119.731 45.744C120.286 46.2773 120.755 47.0453 121.139 48.048C121.523 49.0293 121.715 50.1707 121.715 51.472V57.968C121.715 59.312 121.513 60.496 121.107 61.52C120.723 62.544 120.243 63.3333 119.667 63.888C119.113 64.4427 118.462 64.8907 117.715 65.232C116.521 65.7653 115.262 66.032 113.939 66.032C112.553 66.032 111.369 65.7973 110.387 65.328C109.427 64.8587 108.67 64.3467 108.115 63.792C107.561 63.2373 107.091 62.4587 106.707 61.456C106.323 60.432 106.131 59.2693 106.131 57.968V51.472C106.131 50.128 106.323 48.9547 106.707 47.952C107.113 46.9493 107.593 46.1813 108.147 45.648C108.702 45.1147 109.363 44.688 110.131 44.368ZM116.915 45.808C116.318 45.5307 115.785 45.36 115.315 45.296C114.867 45.2107 114.398 45.168 113.907 45.168C113.438 45.168 112.969 45.2107 112.499 45.296C112.03 45.36 111.486 45.5307 110.867 45.808C110.27 46.064 109.747 46.416 109.299 46.864C108.851 47.2907 108.467 47.92 108.147 48.752C107.849 49.5627 107.699 50.512 107.699 51.6V57.872C107.699 58.96 107.849 59.92 108.147 60.752C108.467 61.584 108.851 62.2347 109.299 62.704C109.769 63.152 110.302 63.5147 110.899 63.792C111.497 64.0693 112.03 64.2507 112.499 64.336C112.99 64.4213 113.47 64.464 113.939 64.464C114.409 64.464 114.878 64.4213 115.347 64.336C115.838 64.2507 116.382 64.0693 116.979 63.792C117.577 63.5147 118.099 63.152 118.547 62.704C118.995 62.2347 119.369 61.584 119.667 60.752C119.987 59.92 120.147 58.96 120.147 57.872V51.6C120.147 50.512 119.987 49.5627 119.667 48.752C119.347 47.92 118.963 47.2907 118.515 46.864C118.067 46.416 117.534 46.064 116.915 45.808ZM126.21 43.6H126.53C126.7 43.6 126.85 43.664 126.978 43.792C127.106 43.92 127.17 44.0693 127.17 44.24V64.432H137.858C138.263 64.432 138.466 64.6453 138.466 65.072V65.36C138.466 65.5307 138.402 65.68 138.274 65.808C138.167 65.936 138.028 66 137.858 66H126.882C126.007 66 125.57 65.5413 125.57 64.624V44.24C125.57 44.0693 125.634 43.92 125.762 43.792C125.89 43.664 126.039 43.6 126.21 43.6Z" fill="#A7A7A7"/>
<path d="M132.102 36C134.435 36 136.326 33.8597 136.326 31.2195C136.326 28.5794 134.435 26.4391 132.102 26.4391C129.769 26.4391 127.878 28.5794 127.878 31.2195C127.878 33.8597 129.769 36 132.102 36Z" fill="#C50005"/>
<path d="M91.4725 36C93.8054 36 95.6965 33.8597 95.6965 31.2195C95.6965 28.5794 93.8054 26.4391 91.4725 26.4391C89.1397 26.4391 87.2485 28.5794 87.2485 31.2195C87.2485 33.8597 89.1397 36 91.4725 36Z" fill="#C50005"/>
<path d="M144.14 24.7551C143.895 23.1483 143.767 21.09 143.772 20.7231C143.772 20.7231 142.117 20.7351 141.131 20.3754C140.146 20.0169 132.751 16.9989 129.462 16.3434C126.172 15.6879 117.623 13.9278 110.237 15.9257C105.701 17.1534 98.4443 21.4872 98.4443 21.4872C98.4443 21.4872 89.2379 22.2139 85.1163 24.4762C80.9947 26.7385 81.5984 26.7711 81.4928 27.0475C81.3861 27.324 81.3979 27.7332 81.3083 28.0205C81.2187 28.3078 81 28.8354 81 29.3424C81 29.8494 81.4907 30.424 81.4917 30.663C81.4928 30.9021 81.3691 30.8091 81.3691 31.0107C81.3691 31.2123 81.7488 31.4308 81.7371 31.8449C81.7211 32.4328 81.1227 32.737 81.1227 32.9567C81.1227 33.1776 81.4373 33.4927 81.6752 33.582C81.9141 33.6713 83.3979 33.9804 85.6677 34.0685C85.6677 34.0685 85.5024 34.3341 86.1595 34.3462C86.2021 34.3474 86.2864 34.3474 86.4037 34.3486C86.2117 33.7305 86.0976 32.9591 86.0976 32.1225C86.0976 31.7483 86.1211 31.3861 86.1627 31.0457C86.2437 27.7863 88.6021 25.1715 91.5024 25.1715C94.1243 25.1715 96.3035 27.3095 96.7579 30.1282C96.9317 30.9757 97.0309 31.9511 97.0309 32.9905C97.0309 33.4577 97.0107 33.9104 96.9733 34.3462C97.0107 34.3462 97.0309 34.3462 97.0309 34.3462L126.758 34.485H126.843C126.668 33.6858 126.573 32.8335 126.573 31.9475C126.573 31.4791 126.6 31.0904 126.65 30.7656C126.855 27.5606 129.217 25.0315 132.101 25.0315C132.158 25.0315 132.215 25.0339 132.273 25.0363C132.317 25.0351 132.363 25.0315 132.408 25.0315C135.427 25.0315 137.875 28.3464 137.875 32.434C137.875 33.1704 137.795 33.8802 137.646 34.5514L137.997 34.5538C137.997 34.5538 143.759 32.8818 144.139 32.469C144.52 32.0573 145 29.9013 145 28.4394C145 26.9763 144.491 27.0535 144.14 24.7551Z" fill="#C50005"/>
</svg>
