<svg width="35" height="35" viewBox="0 0 35 35" fill="none" xmlns="http://www.w3.org/2000/svg">
<circle cx="17.5" cy="17.5" r="17" stroke="#202020"/>
<path d="M24.9443 16.0623C24.3202 12.3446 20.3632 13.7881 18.013 15.2178C18.1033 14.7027 18.3997 14.0224 19.2947 13.5384C20.1738 13.0624 21.5669 12.3549 21.1131 11.1236C20.8891 10.5178 20.4614 10.0466 19.9182 9.69588C19.5828 9.4798 19.2088 9.31996 18.8196 9.23017C17.8605 9.00867 16.9385 8.9396 16.0623 9.05553C12.3441 9.67911 13.7876 13.6366 15.2178 15.9864C14.7027 15.8971 14.0224 15.6001 13.5384 14.7052C13.0624 13.8261 12.3549 12.4329 11.1236 12.8868C10.5178 13.1107 10.0466 13.5384 9.69588 14.0816C9.4798 14.4171 9.31996 14.791 9.23017 15.1803C9.00867 16.1398 8.9396 17.0613 9.05553 17.938C9.67911 21.6557 13.6366 20.2123 15.9864 18.7821C15.8971 19.2981 15.6001 19.9779 14.7052 20.4619C13.8261 20.9375 12.4329 21.6449 12.8868 22.8767C13.1107 23.4826 13.5384 23.9532 14.0816 24.304C14.4171 24.5205 14.791 24.6804 15.1803 24.7701C16.1398 24.9912 17.0613 25.0602 17.938 24.9448C21.6557 24.3207 20.2123 20.3637 18.7826 18.0135C19.2981 18.1037 19.9779 18.4002 20.4619 19.2951C20.9374 20.1743 21.6449 21.5674 22.8767 21.1136C23.4826 20.8896 23.9532 20.4619 24.304 19.9187C24.5205 19.5833 24.6804 19.2093 24.7701 18.8201C24.9912 17.8605 25.0597 16.9385 24.9443 16.0623ZM17.0002 17.8221C16.5458 17.8221 16.1778 17.4535 16.1778 16.9997C16.1778 16.5453 16.5458 16.1773 17.0002 16.1773C17.4545 16.1773 17.8225 16.5453 17.8225 16.9997C17.8221 17.4535 17.454 17.8221 17.0002 17.8221Z" fill="white"/>
<path d="M10.6938 9.67024C10.8759 9.50113 11.1607 9.51167 11.3298 9.69379L24.3298 23.6938C24.4989 23.8759 24.4883 24.1606 24.3062 24.3298C24.1241 24.4989 23.8394 24.4883 23.6703 24.3062L10.6703 10.3062C10.5011 10.1241 10.5117 9.83935 10.6938 9.67024Z" fill="white" stroke="#121212" stroke-width="0.4" stroke-linecap="round"/>
</svg>
