<svg width="35" height="35" viewBox="0 0 35 35" fill="none" xmlns="http://www.w3.org/2000/svg">
<circle cx="17.5" cy="17.5" r="17" stroke="#202020"/>
<path d="M17.5419 14.9187C18.5104 12.9275 19.9191 11.9752 21.3279 11.8886C25.2019 11.4558 26.8748 15.9575 25.5541 19.1607C25.378 19.7667 25.0258 20.2861 24.5856 20.5458C24.0573 20.9787 23.3529 20.9787 22.8247 20.3727C22.0323 19.507 20.7116 18.2084 19.567 17.7755C20.8876 19.2472 21.2398 20.719 20.9757 22.0175C20.0072 25.6535 15.1646 25.7401 12.5233 23.4893C11.5547 22.7967 10.7623 21.0652 12.2591 20.5458C13.4037 20.0264 15.4288 19.0741 16.1331 18.0352C16.1331 18.0352 16.1331 18.0352 16.0451 17.9487C12.6993 18.901 9.52968 17.1695 10.058 13.7066C10.3221 11.8886 11.5547 10.1572 14.02 9.20492C15.0766 8.77206 17.0136 8.9452 16.7495 10.5035C16.6614 11.8021 16.4853 13.7066 17.1017 15.0052C17.2778 15.0052 17.3658 14.9187 17.5419 14.9187ZM18.2463 16.8232C18.2463 16.3904 17.8941 16.1307 17.5419 16.1307C17.1017 16.1307 16.8375 16.3904 16.8375 16.8232C16.8375 17.1695 17.1017 17.5158 17.5419 17.5158C17.8941 17.5158 18.2463 17.1695 18.2463 16.8232Z" fill="white"/>
<path d="M11 11L24 24" stroke="#121212" stroke-width="1.5"/>
<line x1="23.5303" y1="11.5303" x2="10.5303" y2="24.5303" stroke="#121212" stroke-width="1.5"/>
</svg>
