<svg width="35" height="35" viewBox="0 0 35 35" fill="none" xmlns="http://www.w3.org/2000/svg">
<circle cx="17.5" cy="17.5" r="17" stroke="#202020"/>
<g clip-path="url(#clip0)">
<path d="M24.352 11.6224C21.976 11.6224 19.888 10.8128 17.944 9.1584L17.764 9L17.242 9.4224C15.37 10.9008 13.372 11.6224 11.158 11.6224H10.546V15.8816C10.546 16.0224 10.564 16.1808 10.564 16.3216L9.574 15.8112L10.708 17.9056C10.726 18.0288 10.744 18.1696 10.78 18.2928L7.036 19.1376L10.924 20.0176L9.592 22.464L11.806 21.1616C11.968 21.4784 12.13 21.7776 12.328 22.0768L13.012 24.9456L13.318 23.4144C14.47 24.7696 15.946 25.8432 17.674 26.5296L17.782 26.5648L17.89 26.5296C22.21 24.84 25 20.6512 25 15.8464V11.6224H24.352V11.6224ZM24.37 15.8816C24.37 20.4752 21.832 24.3296 17.746 25.9664C15.982 25.2624 14.524 24.136 13.426 22.728L13.786 20.9328L16.396 22.464L14.992 19.8768L18.952 19.12L15.064 18.24L16.396 15.7936L13.894 17.096L12.994 13.2944L12.094 17.096L11.176 16.6208C11.158 16.392 11.14 16.1456 11.14 15.8816V12.2032C13.498 12.2032 15.622 11.4464 17.602 9.8624L17.746 9.7568C19.744 11.4112 21.904 12.2032 24.352 12.2032H24.37V15.8816V15.8816Z" fill="white"/>
<path d="M17.962 11.7808L17.566 12.2208C18.97 13.4352 20.5 14.016 22.228 14.0336V16.48C22.228 19.6304 20.464 22.2704 17.638 23.3792L17.854 23.9248C20.86 22.7456 22.804 19.824 22.804 16.48V13.4704H22.3C20.698 13.4704 19.276 12.9072 17.962 11.7808V11.7808Z" fill="white"/>
</g>
<path d="M11 10L24 24" stroke="white" stroke-width="2" stroke-linecap="round"/>
<defs>
<clipPath id="clip0">
<rect width="18" height="22" fill="white" transform="translate(7 9)"/>
</clipPath>
</defs>
</svg>
