<svg width="35" height="35" viewBox="0 0 35 35" fill="none" xmlns="http://www.w3.org/2000/svg">
<circle cx="17.5" cy="17.5" r="17" stroke="#202020"/>
<path d="M20.3333 17.9647V10.7176C20.3333 9.17765 19.1417 8 17.5833 8C16.025 8 14.8333 9.17765 14.8333 10.7176V17.9647C13.6417 18.78 13 20.1388 13 21.5882C13 24.1247 15.0167 26.1176 17.5833 26.1176C20.15 26.1176 22.1667 24.1247 22.1667 21.5882C22.1667 20.1388 21.525 18.78 20.3333 17.9647ZM17.5833 25.2118C15.5667 25.2118 13.9167 23.5812 13.9167 21.5882C13.9167 20.4106 14.5583 19.2329 15.5667 18.5988C15.6583 18.5082 15.75 18.3271 15.75 18.2365V10.7176C15.75 9.72118 16.575 8.90588 17.5833 8.90588C18.5917 8.90588 19.4167 9.72118 19.4167 10.7176V18.2365C19.4167 18.4176 19.5083 18.5082 19.6 18.5988C20.6083 19.2329 21.25 20.4106 21.25 21.5882C21.25 23.5812 19.6 25.2118 17.5833 25.2118Z" fill="white"/>
<path d="M18.5 19.0518V13.4353C18.5 12.8918 18.1333 12.5294 17.5833 12.5294C17.0333 12.5294 16.6667 12.8918 16.6667 13.4353V19.0518C15.5667 19.4141 14.8333 20.4106 14.8333 21.5882C14.8333 23.1282 16.025 24.3059 17.5833 24.3059C19.1417 24.3059 20.3333 23.1282 20.3333 21.5882C20.3333 20.4106 19.6 19.4141 18.5 19.0518Z" fill="white"/>
<path d="M21.7083 10.7176H23.5417C23.8167 10.7176 24 10.5365 24 10.2647C24 9.99293 23.8167 9.81175 23.5417 9.81175H21.7083C21.4333 9.81175 21.25 9.99293 21.25 10.2647C21.25 10.5365 21.4333 10.7176 21.7083 10.7176Z" fill="white"/>
<path d="M21.7083 12.5294H22.625C22.9 12.5294 23.0833 12.3482 23.0833 12.0765C23.0833 11.8047 22.9 11.6235 22.625 11.6235H21.7083C21.4333 11.6235 21.25 11.8047 21.25 12.0765C21.25 12.3482 21.4333 12.5294 21.7083 12.5294Z" fill="white"/>
<path d="M23.5417 13.4353H21.7083C21.4333 13.4353 21.25 13.6165 21.25 13.8882C21.25 14.16 21.4333 14.3412 21.7083 14.3412H23.5417C23.8167 14.3412 24 14.16 24 13.8882C24 13.6165 23.8167 13.4353 23.5417 13.4353Z" fill="white"/>
<path d="M21.7083 16.1529H22.625C22.9 16.1529 23.0833 15.9718 23.0833 15.7C23.0833 15.4282 22.9 15.2471 22.625 15.2471H21.7083C21.4333 15.2471 21.25 15.4282 21.25 15.7C21.25 15.9718 21.4333 16.1529 21.7083 16.1529Z" fill="white"/>
<path d="M23.5417 17.0588H21.7083C21.4333 17.0588 21.25 17.24 21.25 17.5118C21.25 17.7835 21.4333 17.9647 21.7083 17.9647H23.5417C23.8167 17.9647 24 17.7835 24 17.5118C24 17.24 23.8167 17.0588 23.5417 17.0588Z" fill="white"/>
</svg>
