<svg width="35" height="35" viewBox="0 0 35 35" fill="none" xmlns="http://www.w3.org/2000/svg">
<circle cx="17.5" cy="17.5" r="17" stroke="#202020"/>
<path d="M21.1333 16.4667H13.6667V13.2667C13.6667 12.418 14.0038 11.604 14.6039 11.0039C15.204 10.4038 16.018 10.0667 16.8667 10.0667C17.7154 10.0667 18.5293 10.4038 19.1294 11.0039C19.7295 11.604 20.0667 12.418 20.0667 13.2667V13.8C20.0667 13.9414 20.1229 14.0771 20.2229 14.1771C20.3229 14.2771 20.4586 14.3333 20.6 14.3333C20.7414 14.3333 20.8771 14.2771 20.9771 14.1771C21.0771 14.0771 21.1333 13.9414 21.1333 13.8V13.2667C21.1333 12.1351 20.6838 11.0498 19.8837 10.2497C19.0835 9.44952 17.9983 9 16.8667 9C15.7351 9 14.6498 9.44952 13.8497 10.2497C13.0495 11.0498 12.6 12.1351 12.6 13.2667V16.4667C12.1757 16.4667 11.7687 16.6352 11.4686 16.9353C11.1686 17.2354 11 17.6423 11 18.0667V23.4C11 23.8243 11.1686 24.2313 11.4686 24.5314C11.7687 24.8314 12.1757 25 12.6 25H21.1333C21.5577 25 21.9646 24.8314 22.2647 24.5314C22.5648 24.2313 22.7333 23.8243 22.7333 23.4V18.0667C22.7333 17.6423 22.5648 17.2354 22.2647 16.9353C21.9646 16.6352 21.5577 16.4667 21.1333 16.4667ZM21.6667 23.4C21.6667 23.5414 21.6105 23.6771 21.5105 23.7771C21.4104 23.8771 21.2748 23.9333 21.1333 23.9333H12.6C12.4586 23.9333 12.3229 23.8771 12.2229 23.7771C12.1229 23.6771 12.0667 23.5414 12.0667 23.4V18.0667C12.0667 17.9252 12.1229 17.7896 12.2229 17.6895C12.3229 17.5895 12.4586 17.5333 12.6 17.5333H21.1333C21.2748 17.5333 21.4104 17.5895 21.5105 17.6895C21.6105 17.7896 21.6667 17.9252 21.6667 18.0667V23.4Z" fill="white"/>
<path d="M16.8667 19.1333C16.5502 19.1333 16.2409 19.2272 15.9778 19.403C15.7146 19.5788 15.5096 19.8287 15.3885 20.121C15.2674 20.4134 15.2357 20.7351 15.2974 21.0455C15.3591 21.3558 15.5115 21.6409 15.7353 21.8647C15.9591 22.0885 16.2441 22.2409 16.5545 22.3026C16.8649 22.3643 17.1866 22.3326 17.479 22.2115C17.7713 22.0904 18.0212 21.8854 18.197 21.6222C18.3728 21.3591 18.4667 21.0498 18.4667 20.7333C18.4667 20.309 18.2981 19.902 17.998 19.602C17.698 19.3019 17.291 19.1333 16.8667 19.1333ZM16.8667 21.2667C16.7612 21.2667 16.6581 21.2354 16.5704 21.1768C16.4827 21.1182 16.4143 21.0349 16.3739 20.9374C16.3336 20.84 16.323 20.7327 16.3436 20.6293C16.3642 20.5258 16.415 20.4308 16.4895 20.3562C16.5641 20.2816 16.6592 20.2308 16.7626 20.2102C16.8661 20.1897 16.9733 20.2002 17.0708 20.2406C17.1682 20.281 17.2515 20.3493 17.3101 20.437C17.3687 20.5247 17.4 20.6278 17.4 20.7333C17.4 20.8748 17.3438 21.0104 17.2438 21.1105C17.1438 21.2105 17.0081 21.2667 16.8667 21.2667Z" fill="white"/>
</svg>
